<svg version="1.1" xmlns="http://www.w3.org/2000/svg" viewBox="0 0 271.46233553208685 348.63752153211044" width="542.9246710641737" height="697.2750430642209">
  <!-- svg-source:excalidraw -->
  
  <defs>
    <style class="style-fonts">
      
    </style>
    
  </defs>
  <g stroke-linecap="round"><g transform="translate(-8.839012310779253 37.81309959505779) rotate(16.11231020613413 120.45269585010124 161.46449148051215)"><path d="M0.14 -0.8 C40.21 6.5, 230.05 -10.76, 240.28 43.29 C250.51 97.35, 91.25 276.89, 61.51 323.55 M-1.25 1.4 C39.23 8.95, 232.29 -8.46, 242.66 44.89 C253.03 98.25, 91 274.93, 60.95 321.53" stroke="#1e1e1e" stroke-width="2" fill="none"></path></g><g transform="translate(-8.839012310779253 37.81309959505779) rotate(16.11231020613413 120.45269585010124 161.46449148051215)"><path d="M68.59 297.73 C64.97 303.55, 64.3 312.14, 60.95 321.53 M68.59 297.73 C65.46 306.31, 62.75 314.96, 60.95 321.53" stroke="#1e1e1e" stroke-width="2" fill="none"></path></g><g transform="translate(-8.839012310779253 37.81309959505779) rotate(16.11231020613413 120.45269585010124 161.46449148051215)"><path d="M82.11 308.21 C74.63 311.03, 70.06 316.59, 60.95 321.53 M82.11 308.21 C74.16 313.14, 66.7 318.1, 60.95 321.53" stroke="#1e1e1e" stroke-width="2" fill="none"></path></g></g><mask></mask></svg>